<svg xmlns="http://www.w3.org/2000/svg" viewBox="0 0 600 300">
  <defs>
    <radialGradient id="bg" cx="50%" cy="40%" r="70%">
      <stop offset="0%" stop-color="#1A1A1A"/>
      <stop offset="100%" stop-color="#0A0A0A"/>
    </radialGradient>
    <radialGradient id="glow" cx="50%" cy="50%" r="55%">
      <stop offset="0%" stop-color="#C9A84C" stop-opacity="0.09"/>
      <stop offset="100%" stop-color="#C9A84C" stop-opacity="0"/>
    </radialGradient>
  </defs>
  <rect width="600" height="300" fill="url(#bg)"/>
  <rect width="600" height="300" fill="url(#glow)"/>
  <line x1="0" y1="0" x2="300" y2="300" stroke="#C9A84C" stroke-opacity="0.04" stroke-width="1"/>
  <line x1="150" y1="0" x2="450" y2="300" stroke="#C9A84C" stroke-opacity="0.03" stroke-width="1"/>
  <line x1="300" y1="0" x2="600" y2="300" stroke="#C9A84C" stroke-opacity="0.04" stroke-width="1"/>
  <line x1="450" y1="0" x2="750" y2="300" stroke="#C9A84C" stroke-opacity="0.03" stroke-width="1"/>
  <!-- Abstract beard shape center -->
  <g transform="translate(300,148)">
    <!-- Beard outline -->
    <path d="M-95,0 Q-100,25 -88,65 Q-65,120 0,135 Q65,120 88,65 Q100,25 95,0 Q60,-8 0,-8 Q-60,-8 -95,0 Z"
          fill="none" stroke="#C9A84C" stroke-width="1.8" stroke-opacity="0.45"/>
    <!-- Inner beard shape -->
    <path d="M-70,5 Q-75,28 -62,62 Q-42,108 0,118 Q42,108 62,62 Q75,28 70,5 Q42,-2 0,-2 Q-42,-2 -70,5 Z"
          fill="#C9A84C" fill-opacity="0.05"/>
    <!-- Texture lines -->
    <path d="M-60,12 Q-56,48 -40,80 Q-20,110 0,118" stroke="#C9A84C" stroke-width="1" fill="none" stroke-opacity="0.25"/>
    <path d="M60,12 Q56,48 40,80 Q20,110 0,118" stroke="#C9A84C" stroke-width="1" fill="none" stroke-opacity="0.25"/>
    <path d="M-28,4 Q-26,44 -14,76 Q-7,100 0,115" stroke="#C9A84C" stroke-width="0.8" fill="none" stroke-opacity="0.18"/>
    <path d="M28,4 Q26,44 14,76 Q7,100 0,115" stroke="#C9A84C" stroke-width="0.8" fill="none" stroke-opacity="0.18"/>
    <!-- Mustache -->
    <path d="M-48,-5 Q-22,-18 0,-12 Q22,-18 48,-5 Q22,10 0,7 Q-22,10 -48,-5 Z"
          fill="#C9A84C" fill-opacity="0.12" stroke="#C9A84C" stroke-width="0.8" stroke-opacity="0.35"/>
  </g>
  <!-- Navaja right decorative -->
  <g transform="translate(510,100) rotate(35)" opacity="0.55">
    <rect x="-10" y="-50" width="20" height="40" rx="5" fill="none" stroke="#C9A84C" stroke-width="1.5"/>
    <circle cx="0" cy="-10" r="3" fill="#C9A84C" opacity="0.6"/>
    <path d="M-7,-10 L-7,80 Q0,88 7,80 L7,-10 Z" fill="none" stroke="#C9A84C" stroke-width="1.5"/>
    <line x1="7" y1="-8" x2="7" y2="78" stroke="#C9A84C" stroke-width="0.8" opacity="0.5"/>
  </g>
  <!-- Navaja left decorative -->
  <g transform="translate(88,180) rotate(-30)" opacity="0.4">
    <rect x="-10" y="-45" width="20" height="38" rx="5" fill="none" stroke="#C9A84C" stroke-width="1.5"/>
    <circle cx="0" cy="-8" r="3" fill="#C9A84C" opacity="0.5"/>
    <path d="M-7,-8 L-7,70 Q0,78 7,70 L7,-8 Z" fill="none" stroke="#C9A84C" stroke-width="1.5"/>
  </g>
  <circle cx="300" cy="42" r="2" fill="#C9A84C" opacity="0.3"/>
  <rect x="12" y="12" width="576" height="276" fill="none" stroke="#C9A84C" stroke-width="0.8" stroke-opacity="0.3"/>
  <path d="M12,12 L12,38 M12,12 L38,12" stroke="#C9A84C" stroke-width="2" fill="none"/>
  <path d="M588,12 L588,38 M588,12 L562,12" stroke="#C9A84C" stroke-width="2" fill="none"/>
  <path d="M12,288 L12,262 M12,288 L38,288" stroke="#C9A84C" stroke-width="2" fill="none"/>
  <path d="M588,288 L588,262 M588,288 L562,288" stroke="#C9A84C" stroke-width="2" fill="none"/>
  <text x="300" y="272" text-anchor="middle" font-family="Georgia,serif" font-size="9" letter-spacing="5" fill="#C9A84C" opacity="0.55">BARBA COMPLETA</text>
  <line x1="160" y1="278" x2="440" y2="278" stroke="#C9A84C" stroke-width="0.5" opacity="0.3"/>
</svg>